# Blender 5.2.0 LTS
# www.blender.org
mtllib mcl_beds_straw_bed.mtl
o Cube.001
v 0.625000 -0.500000 1.000000
v 0.625000 -0.187500 1.000000
v 0.625000 -0.500000 1.500000
v 0.625000 -0.187500 1.500000
v -0.625000 -0.500000 1.000000
v -0.625000 -0.187500 1.000000
v -0.625000 -0.500000 1.500000
v -0.625000 -0.187500 1.500000
v 0.500000 -0.500000 -0.500000
v 0.500000 -0.250000 -0.500000
v 0.500000 -0.500000 1.500000
v 0.500000 -0.250000 1.500000
v -0.500000 -0.500000 -0.500000
v -0.500000 -0.250000 -0.500000
v -0.500000 -0.500000 1.500000
v -0.500000 -0.250000 1.500000
v 0.625000 -0.437500 -0.625000
v 0.625000 -0.437500 1.625000
v -0.625000 -0.437500 -0.625000
v -0.625000 -0.437500 1.625000
vn -0.0000 -0.0000 1.0000
vn -0.0000 -0.0000 -1.0000
vn -0.0000 1.0000 -0.0000
vn 1.0000 -0.0000 -0.0000
vn -1.0000 -0.0000 -0.0000
vn -0.0000 -1.0000 -0.0000
vt 0.031596 0.312500
vt 0.031596 0.234375
vt 0.343673 0.234375
vt 0.343673 0.312500
vt 0.031592 0.312500
vt 0.031592 0.234375
vt 0.343630 0.234375
vt 0.343630 0.312500
vt 0.343703 0.437481
vt 0.031280 0.437481
vt 0.031280 0.312618
vt 0.343703 0.312618
vt 0.062500 0.937500
vt 0.000000 0.937500
vt 0.000000 0.437500
vt 0.062500 0.437500
vt 0.375000 0.937500
vt 0.312500 0.937500
vt 0.312500 0.437500
vt 0.375000 0.437500
vt 0.312500 0.937500
vt 0.312500 1.000000
vt 0.062500 1.000000
vt 0.062500 0.937500
vt 0.312500 0.937500
vt 0.062500 0.937500
vt 0.062500 0.437500
vt 0.312500 0.437500
vt 0.375000 0.406250
vt 0.687500 0.406250
vt 0.687500 0.968750
vt 0.375000 0.968750
s 0
usemtl Material
f 3/1/1 4/2/1 8/3/1 7/4/1
f 5/5/2 6/6/2 2/7/2 1/8/2
f 8/9/3 4/10/3 2/11/3 6/12/3
f 9/13/4 10/14/4 12/15/4 11/16/4
f 15/17/5 16/18/5 14/19/5 13/20/5
f 13/21/2 14/22/2 10/23/2 9/24/2
f 16/25/3 12/26/3 10/27/3 14/28/3
f 18/29/6 20/30/6 19/31/6 17/32/6
