# Blender 5.1.2
# www.blender.org
o cube.004
v -0.062500 0.437500 -0.500000
v -0.062500 -0.562500 -0.500000
v -0.062500 0.437500 0.500000
v -0.062500 -0.562500 0.500000
v 0.062500 0.062500 0.062500
v 0.062500 0.062500 -0.062500
v 0.062500 -0.562500 0.062500
v 0.062500 -0.562500 -0.062500
v -0.062500 0.062500 -0.062500
v -0.062500 0.062500 0.062500
v -0.062500 -0.562500 -0.062500
v -0.062500 -0.562500 0.062500
v 0.500000 0.437500 0.062500
v 0.500000 -0.562500 0.062500
v -0.500000 0.437500 0.062500
v -0.500000 -0.562500 0.062500
v 0.500000 0.437500 -0.062500
v 0.500000 -0.562500 -0.062500
v -0.500000 0.437500 -0.062500
v -0.500000 -0.562500 -0.062500
v 0.062500 0.437500 -0.500000
v 0.062500 -0.562500 -0.500000
v 0.062500 0.437500 0.500000
v 0.062500 -0.562500 0.500000
vt 1.000000 1.000000
vt 1.000000 0.000000
vt 0.000000 1.000000
vt 0.000000 0.000000
vt 0.562500 0.500000
vt 0.562500 0.625000
vt 0.437500 0.500000
vt 0.437500 0.625000
vt 0.562500 0.125000
vt 0.562500 0.000063
vt 0.437500 0.125000
vt 0.437500 0.000063
s 1
f 3/1 4/2 1/3
f 4/2 2/4 1/3
f 9/5 10/6 6/7
f 10/6 5/8 6/7
f 12/9 11/10 7/11
f 11/10 8/12 7/11
f 13/1 14/2 15/3
f 14/2 16/4 15/3
f 19/1 20/2 17/3
f 20/2 18/4 17/3
f 21/1 22/2 23/3
f 22/2 24/4 23/3
