# Blender 5.1.2
# www.blender.org
o cube
v -0.062500 -0.198340 0.273825
v -0.062500 -0.313825 0.321660
v -0.062500 -0.437517 -0.303600
v -0.062500 -0.553002 -0.255765
v 0.062500 -0.313825 0.321660
v 0.062500 -0.198340 0.273825
v 0.062500 -0.553002 -0.255765
v 0.062500 -0.437517 -0.303600
v -0.500000 -0.054833 0.620280
v -0.500000 -0.437517 -0.303600
v 0.500000 -0.054834 0.620280
v 0.500000 -0.437517 -0.303600
v -0.500000 -0.170318 0.668115
v -0.500000 -0.553002 -0.255765
v 0.500000 -0.170318 0.668115
v 0.500000 -0.553002 -0.255765
v -0.062500 -0.574516 0.835539
v -0.062500 -0.957199 -0.088340
v -0.062500 0.349364 0.452856
v -0.062500 -0.033320 -0.471024
v 0.062500 -0.574516 0.835539
v 0.062500 -0.957199 -0.088340
v 0.062500 0.349364 0.452856
v 0.062500 -0.033320 -0.471024
vt 0.437500 0.500000
vt 0.562500 0.500000
vt 0.437500 0.625000
vt 0.562500 0.625000
vt 0.562469 0.000032
vt 0.437532 0.000032
vt 0.562469 0.125032
vt 0.437531 0.125032
vt 1.000000 1.000000
vt 1.000000 0.000000
vt 0.000000 1.000000
vt 0.000000 0.000000
s 1
f 5/1 6/2 2/3
f 6/2 1/4 2/3
f 8/5 7/6 3/7
f 7/6 4/8 3/7
f 9/9 10/10 11/11
f 10/10 12/12 11/11
f 15/9 16/10 13/11
f 16/10 14/12 13/11
f 17/9 18/10 19/11
f 18/10 20/12 19/11
f 23/9 24/10 21/11
f 24/10 22/12 21/11
